M48
; DRILL file {KiCad (6.0.1)} date Sun Apr  3 17:56:57 2022
; FORMAT={-:-/ absolute / inch / decimal}
; #@! TF.CreationDate,2022-04-03T17:56:57-07:00
; #@! TF.GenerationSoftware,Kicad,Pcbnew,(6.0.1)
; #@! TF.FileFunction,Plated,1,2,PTH
FMAT,2
INCH
; #@! TA.AperFunction,Plated,PTH,ViaDrill
T1C0.0157
; #@! TA.AperFunction,Plated,PTH,ComponentDrill
T2C0.0394
%
G90
G05
T1
X5.6689Y-2.7346
X6.0626Y-3.9433
X6.3579Y-4.1323
T2
X4.8481Y-2.6401
X4.8481Y-2.7401
X4.8481Y-2.8401
X4.8481Y-2.9401
X4.8481Y-3.0401
X4.8481Y-3.1401
X4.8481Y-3.2401
X4.8481Y-3.3401
X4.8481Y-3.4401
X4.8481Y-3.5401
X4.8481Y-3.6401
X4.8481Y-3.7401
X4.9481Y-2.6401
X4.9481Y-2.7401
X4.9481Y-2.8401
X4.9481Y-2.9401
X4.9481Y-3.0401
X4.9481Y-3.1401
X4.9481Y-3.2401
X4.9481Y-3.3401
X4.9481Y-3.4401
X4.9481Y-3.5401
X4.9481Y-3.6401
X4.9481Y-3.7401
X5.3875Y-2.1854
X5.3875Y-2.2854
X5.3875Y-2.3854
X5.3875Y-2.4854
X5.3875Y-2.5854
X5.3875Y-2.6854
X5.3875Y-2.7854
X5.3875Y-2.8854
X5.3875Y-2.9854
X5.3875Y-3.0854
X5.3875Y-3.1854
X5.3875Y-3.2854
X5.3875Y-3.3854
X5.3875Y-3.4854
X5.3875Y-3.5854
X5.3875Y-3.6854
X5.3875Y-3.7854
X5.3875Y-3.8854
X5.3875Y-3.9854
X5.3875Y-4.0854
X5.3875Y-4.1854
X5.9875Y-2.1854
X5.9875Y-2.2854
X5.9875Y-2.3854
X5.9875Y-2.4854
X5.9875Y-2.5854
X5.9875Y-2.6854
X5.9875Y-2.7854
X5.9875Y-2.8854
X5.9875Y-2.9854
X5.9875Y-3.0854
X5.9875Y-3.1854
X5.9875Y-3.2854
X5.9875Y-3.3854
X5.9875Y-3.4854
X5.9875Y-3.5854
X5.9875Y-3.6854
X5.9875Y-3.7854
X5.9875Y-3.8854
X5.9875Y-3.9854
X5.9875Y-4.0854
X5.9875Y-4.1854
X6.4253Y-2.6401
X6.4253Y-2.7401
X6.4253Y-2.8401
X6.4253Y-2.9401
X6.4253Y-3.0401
X6.4253Y-3.1401
X6.4253Y-3.2401
X6.4253Y-3.3401
X6.4253Y-3.4401
X6.4253Y-3.5401
X6.4253Y-3.6401
X6.4253Y-3.7401
X6.5253Y-2.6401
X6.5253Y-2.7401
X6.5253Y-2.8401
X6.5253Y-2.9401
X6.5253Y-3.0401
X6.5253Y-3.1401
X6.5253Y-3.2401
X6.5253Y-3.3401
X6.5253Y-3.4401
X6.5253Y-3.5401
X6.5253Y-3.6401
X6.5253Y-3.7401
T0
M30
